<svg xmlns="http://www.w3.org/2000/svg" width="1563" height="1563"><path fill="#FE0012" d="M767.166 75.152c.132-.009.26-.023.388-.026q13.615-.342 27.233-.176 13.619.166 27.222.84 13.603.675 27.172 1.856 13.566 1.181 27.08 2.868 13.515 1.686 26.96 3.876 13.44 2.19 26.793 4.879 13.35 2.689 26.593 5.875 13.242 3.185 26.354 6.862 13.114 3.677 26.082 7.841t25.771 8.809q12.804 4.645 25.424 9.763 12.62 5.12 25.041 10.706 12.422 5.586 24.627 11.632 12.201 6.046 24.171 12.542 11.97 6.497 23.69 13.436 11.719 6.939 23.173 14.31 20.083 12.788 39.068 27.158 18.982 14.37 36.743 30.228 42.732 38.594 79.79 82.668c6.627 7.739 14.63 15.789 19.424 24.773 1.78 3.337 2.479 6.484 2.613 10.26.736 20.768-.153 41.899-.202 62.706l-.06 124.17-.043 398.458-.14 176.74.188 43.493c.05 8.682.935 18.243-.885 26.748-2.625 12.284-41.291 54.006-52.214 65.637-135.202 143.979-311.586 216.038-507.595 222.089q-2.974.116-5.95.177-8.801.198-17.605.18-8.804-.018-17.605-.253-8.801-.239-17.593-.69-8.792-.452-17.569-1.124-8.78-.671-17.538-1.557-8.758-.888-17.492-1.99-8.734-1.102-17.44-2.42-8.703-1.32-17.373-2.852-8.67-1.533-17.297-3.279-8.63-1.746-17.211-3.706-8.585-1.96-17.117-4.13t-17.007-4.552q-8.477-2.378-16.89-4.967-8.414-2.591-16.763-5.388-8.346-2.796-16.625-5.797-8.276-3-16.476-6.206-8.2-3.205-16.317-6.612-8.117-3.404-16.149-7.012-8.031-3.606-15.971-7.41-7.94-3.803-15.783-7.799-7.842-3.999-15.584-8.19-7.745-4.192-15.38-8.572-7.638-4.381-15.163-8.948t-14.937-9.32q-7.409-4.753-14.702-9.686-7.29-4.934-14.457-10.047-7.168-5.113-14.205-10.4-7.04-5.288-13.945-10.75-6.908-5.457-13.676-11.087-6.768-5.629-13.395-11.423-6.63-5.797-13.112-11.753-6.483-5.956-12.816-12.07c-17.462-16.882-65.05-67.179-74.352-85.709-1.569-3.126-1.676-6.365-1.733-9.78-1.05-62.988.059-126.192.068-189.197l.025-410-.035-166.597c-.002-12.983-1.577-55.138.825-64.66 2.895-11.472 48.557-60.277 58.941-71.014 133.621-138.165 311.43-211.188 502.943-214.43zm-2.18 264.937c-4.468-.045-9.774-.61-14.155.03-2.433.358-5.696 3.536-7.845 3.206-2.91-.445-4.61-3.013-7.681-3.483-4.274 2.854-8.752 10.618-12.138 14.736-6.365 8.422-12.1 23.28-21.747 27.82l-.476 1.062c1.501 2.71 2.545 3.614 1.672 6.755-.24.873-.543 1.728-.84 2.583l.865.009c5.724.104 11.615.77 17.242 1.838.195.485.516.952.528 1.477-12.25 20.634-28.775 38.278-43.895 56.754-16.476 20.13-32.527 40.738-48.835 61.027l-84.496 106.32c-13.332 16.76-26.062 33.742-40.171 49.897 6.392-30.088 9.952-60.514 13.92-90.987 4.286-32.926 8.722-65.81 11.756-98.88-42.857-.242-86.172-1.554-128.993.137-10.074 75.927-18.445 152.142-29.242 227.969l.955 1.721c.397-.253.812-.482 1.194-.76.382-.275.717-.607 1.09-.894 2.964-2.268 8.987-3.64 12.626-4.176 5.25-.773 10.929-.199 16.268-.654 14.998-1.273 30.008-3.428 45.074-3.446 11.737-.016 23.469 1.596 35.176 1.334 6.805-.156 13.56-1.014 20.35-1.237 3.962-.13 7.995.242 11.942-.094 3.343-.284 6.652-1.362 10.004-1.484 2.943-.107 6.087.94 9.027 1.246 6.81.705 14.134 1.627 20.972 1.447 11.854-.318 23.472-2.632 35.451-2.73 4.763-.036 29.743 1.258 32.432.764 4.735-.867 7.08-4.76 10.77-7.354 2.241-1.576 3.157-1.545 5.795-1.084 7.937-7.705 19.955-25.292 27.605-34.74q40.648-49.836 80.193-100.548c42.985-54.744 89.973-107.42 131.523-163.095-5.891-8.401-11.737-17.517-18.92-24.865-.507.14-1.017.577-1.52.428-4-1.19-20.277-30.943-33.141-33.043-4.4-.72-12.873 3.2-17.877 3.85-4.872.632-10.019 1.068-14.93.955-7.202-.165-21.684-4.05-27.527.19zm113.69 140.237q-13.242 111.092-28.051 221.985c.485 2.467.47 3.123 2.213 5.034 1.59-.647 1.621-1.542 2.29-3.086.519-1.206.806-2.33 1.087-3.606l.622.574-.06-2.369.808.483c2.55 1.493 3.642 2.039 6.625 1.859 5.623-.345 10.693 2.13 16.216 2.28 12.88.351 26.073-.79 38.934-1.596 8.456-.528 17.157-.538 25.555-1.414 10.873-1.135 19.583-3.709 30.6-1.688 2.113-2.259 1.328-5.373 3.056-7.955l.836.503c-.781 4.415-2.164 10.465-.372 14.687 2.76-14.015 4.063-28.537 5.745-42.72l7.953-66.1c4.884-39.014 11.9-77.867 15.602-117.012q-64.828-.342-129.659.14z"/><path fill="#5AF4FD" d="m721.583 353.454 1.584 1.124c-6.365 8.422-12.1 23.28-21.747 27.82l-.476 1.062c1.501 2.71 2.545 3.614 1.672 6.755-.24.873-.543 1.728-.84 2.583l.865.009c5.724.104 11.615.77 17.242 1.838.195.485.516.952.528 1.477-10.108-1.138-20.295-.97-30.451-1.282 8.422-14.604 21.07-28.204 31.623-41.386zm305.413 167.363c47.693-9.027 95.884-15.303 143.61-24.15 10.798-2.003 22.117-2.973 32.747-5.525l-52.101 67.407c-11.2 14.232-25.36 29.587-34.417 45.104-2.195-9.924 42.986-52.23 46.02-65.328-1.712-3.566-2.622-1.23-5.81-2.916l-.61-2.537c-1.972-1.102-3.355-.583-5.55-.397-2.967-2.115-3.938-3.81-4.963-7.33-.617-2.112-1.273-4.017-2.146-6.034-3.871-2.784-10.2-.965-14.61-.016-8.066 1.74-24.444 6.527-31.816 6.585-7.125.055-14.73-2.036-21.998-2.292-1.548-.058-4.146-.391-5.129 1.083-.244.37-.311.83-.47 1.243-1.273-.37-2.55-.644-3.85-.913-2.075 2.22-2.817 4.964-5.33 6.924-2.949 2.298-7.436 3.403-9.878 6.233-10.01 11.6 22.468 40.775 21.995 51.64-.019.385-.077.766-.113 1.151-8.484-13.865-16.33-28.39-25.442-41.835-6.37-9.393-14.607-18.227-20.139-28.097zM785.855 271.234c17.767 21.16 34.12 43.771 50.795 65.803 7.552 9.976 16.893 20.108 23.332 30.673-.507.14-1.017.577-1.52.428-4-1.19-20.277-30.943-33.141-33.043-4.4-.72-12.873 3.2-17.877 3.85-4.872.632-10.019 1.068-14.93.955-7.202-.165-21.684-4.05-27.527.19-4.47-.046-9.775-.611-14.156.03-2.433.357-5.696 3.535-7.845 3.205-2.91-.445-4.61-3.013-7.681-3.483-4.274 2.854-8.752 10.618-12.138 14.736l-1.584-1.124 34.423-43.419c10.214-12.773 20.59-25.291 29.85-38.8z"/><path fill="#7F0152" d="M261.487 759.974c12.137-4.997 24.56-9.418 36.768-14.262 18.667-7.403 51.579-22.014 70.512-24.239q-3.065 27.114-6.652 54.165c-1.017 7.87-1.53 16.115-3.053 23.884-.058-.46-.287-2.396-.446-2.784-.763-1.896-4.576-2.375-6.392-2.934-30.967-9.533-59.673-24.385-90.737-33.83zm493.71 372.168c25.997-1.106 52.543-.147 78.574.314-11.31 31.776-27.093 62.294-41.465 92.788-3.871 7.277-7.357 14.836-11.015 22.227-5.977-12.63-11.066-25.741-16.863-38.47-11.42-25.073-23.366-49.998-33.015-75.818l23.784-1.041z"/><defs><linearGradient id="a" gradientUnits="userSpaceOnUse" x1="305.877" y1="230.38" x2="302.794" y2="157.781"><stop offset="0" stop-color="#02DEFA"/><stop offset="1" stop-color="#02FFFF" stop-opacity=".988"/></linearGradient></defs><path fill="url(#a)" transform="scale(3.05273)" d="M287.833 157.343q21.237-.158 42.473-.046c-1.213 12.823-3.511 25.55-5.111 38.33l-2.605 21.653c-.551 4.646-.978 9.403-1.882 13.994-.587-1.383-.134-3.365.122-4.811l-.274-.165c-.566.846-.309 1.866-1.001 2.606-3.609-.662-6.462.181-10.024.553-2.751.287-5.601.29-8.371.463-4.213.264-8.535.638-12.754.523-1.809-.049-3.47-.86-5.312-.747-.977.059-1.335-.12-2.17-.609l-.265-.158.02.776-.204-.188c-.092.418-.186.786-.356 1.181-.219.506-.229.799-.75 1.011-.571-.626-.566-.841-.725-1.649q4.851-36.326 9.189-72.717z"/><path fill="#34D7F8" d="M1072.577 590.749c.036-.385.094-.766.113-1.15.473-10.866-32.005-40.04-21.995-51.64 2.442-2.83 6.93-3.936 9.878-6.234 2.513-1.96 3.255-4.705 5.33-6.924 1.3.269 2.577.543 3.85.913.159-.412.226-.873.47-1.243.983-1.474 3.58-1.141 5.129-1.083 7.268.256 14.873 2.347 21.998 2.292 7.372-.058 23.75-4.845 31.815-6.585 4.411-.949 10.74-2.768 14.61.016.874 2.017 1.53 3.922 2.147 6.035 1.025 3.52 1.996 5.214 4.963 7.33 2.195-.187 3.578-.706 5.55.396l.61 2.537c3.188 1.685 4.098-.65 5.81 2.916-3.034 13.099-48.215 55.404-46.02 65.328 1.27 11.747 8.041 29.135 11.408 41.279 4.585 16.537 8.12 33.504 12.929 49.927.91 3.111 2.088 5.913 3.593 8.783 11.826 7.62 26.806 11.909 39.871 17.095 30.949 12.285 62.288 23.69 92.81 37.009-13.036 6.023-26.605 10.764-39.976 15.965l-52.647 20.722c-11.75 4.57-25.326 8.41-36.13 14.779-2.182 1.288-5.19 3.01-6.398 5.336-4.921 9.46-10.166 34.007-13.334 45.284-5.031 17.904-10.972 35.555-15.826 53.499 8.691 13.997 19.208 26.925 29.468 39.78 18.997 23.79 39.277 47.208 57.257 71.727-22.013-.958-43.34-7.214-64.916-11.106-37.533-6.768-77.277-12.998-114.337-21.195 24.59-32.255 47.76-65.096 63.8-102.645 30.23-70.765 36.195-157.12 14.646-231.214-4.686-16.109-10.483-32.514-17.141-47.894-2.928-6.759-6.621-13.2-9.335-20.035z"/><defs><linearGradient id="b" gradientUnits="userSpaceOnUse" x1="200.464" y1="237.252" x2="208.401" y2="105.781"><stop offset="0" stop-color="#00DFFA"/><stop offset="1" stop-color="#2CFFFF" stop-opacity=".988"/></linearGradient></defs><path fill="url(#b)" transform="scale(3.05273)" d="M250.591 111.405c1.914-1.389 6.658-.116 9.017-.062 1.609.037 3.295-.106 4.891-.313 1.639-.213 4.415-1.497 5.856-1.261 4.214.688 9.546 10.434 10.856 10.824.165.049.332-.094.498-.14 2.353 2.407 4.268 5.393 6.198 8.145-13.611 18.238-29.003 35.493-43.084 53.426q-12.954 16.612-26.269 32.937c-2.506 3.095-6.443 8.856-9.043 11.38-.864-.151-1.164-.161-1.898.355-1.209.85-1.977 2.125-3.528 2.409-.881.162-9.064-.262-10.624-.25-3.924.032-7.73.79-11.613.894-2.24.059-4.639-.243-6.87-.474-.963-.1-1.993-.443-2.957-.408-1.098.04-2.182.393-3.277.486-1.293.11-2.614-.012-3.912.031-2.224.073-4.437.354-6.666.405-3.835.086-7.678-.442-11.523-.437-4.935.006-9.852.712-14.765 1.129-1.749.149-3.609-.039-5.329.214-1.192.176-3.165.625-4.136 1.368-.122.094-.232.203-.357.293-.125.091-.261.166-.391.249l-.313-.564c3.537-24.839 6.279-49.805 9.579-74.677 14.027-.554 28.216-.124 42.255-.045-.994 10.833-2.447 21.605-3.851 32.391-1.3 9.982-2.466 19.949-4.56 29.805 4.622-5.292 8.792-10.855 13.159-16.345l27.679-34.828c5.342-6.646 10.6-13.397 15.997-19.991 4.953-6.052 10.366-11.832 14.379-18.591-.004-.172-.109-.325-.173-.484a33.919 33.919 0 0 0-5.648-.602l-.283-.003c.097-.28.196-.56.275-.846.286-1.029-.056-1.325-.548-2.213l.156-.348c3.16-1.487 5.039-6.354 7.124-9.113 1.109-1.349 2.576-3.892 3.976-4.827 1.006.154 1.563.995 2.516 1.141.704.108 1.773-.933 2.57-1.05 1.435-.21 3.173-.025 4.637-.01z"/><defs><linearGradient id="c" gradientUnits="userSpaceOnUse" x1="213.577" y1="370.637" x2="216.511" y2="224.167"><stop offset="0" stop-color="#0274CE"/><stop offset="1" stop-color="#05CAF3"/></linearGradient></defs><path fill="url(#c)" transform="scale(3.05273)" d="m121.352 232.041.313.564c.13-.083.266-.158.391-.249.125-.09.235-.199.357-.293.971-.743 2.944-1.192 4.136-1.368 1.72-.253 3.58-.065 5.329-.214 4.913-.417 9.83-1.123 14.765-1.129 3.845-.005 7.688.523 11.523.437 2.229-.051 4.442-.332 6.666-.405 1.298-.043 2.619.079 3.912-.031 1.095-.093 2.179-.446 3.277-.486.964-.035 1.994.308 2.957.408 2.231.231 4.63.533 6.87.474 3.883-.104 7.689-.862 11.613-.894 1.56-.012 9.743.412 10.624.25 1.551-.284 2.319-1.559 3.528-2.409.734-.516 1.034-.506 1.898-.355-1.974 2.642-4.298 4.985-6.326 7.579 5.47 7.605 11.42 14.84 17.026 22.337 10.825 14.476 21.441 29.127 32.427 43.479 2.99 3.905 6.288 7.565 9.246 11.495 3.44-4.154 5.859-9.564 7.307-14.733 1.765-6.302 2.145-12.971 3.106-19.428q3.467-23.465 6.347-47.01c.159.808.154 1.023.725 1.649.521-.212.531-.505.75-1.011.17-.395.264-.763.356-1.181l.204.188-.02-.776.265.158c.835.489 1.193.668 2.17.609 1.842-.113 3.503.698 5.312.747 4.219.115 8.541-.259 12.754-.523 2.77-.173 5.62-.176 8.371-.463 3.562-.372 6.415-1.215 10.024-.553.692-.74.435-1.76 1.001-2.606l.274.165c-.256 1.446-.709 3.428-.122 4.811-.139 3.409-.693 6.881-1.098 10.268q-1.396 11.181-2.941 22.342c-1.153 8.672-1.599 17.635-3.343 26.19-2.154 10.572-7.853 22.809-14.184 31.58-3.801 5.268-8.815 10.607-13.594 15.039-3.399 3.153-7.179 5.792-11.042 8.335-11.425 7.522-20.695 11.668-33.408 16.335-3.319 1.219-6.65 2.545-10.046 3.53-5.547 1.61-11.271 2.711-16.935 3.817-6.617 1.293-13.83 2.568-20.593 2.369-.669-.02-1.163-.052-1.677-.529-.085-.515-.096-.607.231-1.057 1.155-1.593 3.757-2.697 5.357-3.916 1.111-.847 2.156-1.791 3.194-2.725 10.107-9.106 23.189-24.948 26.334-38.452-3.453.138-7.391.807-10.778.287-1.824-1.874-3.366-4.095-4.933-6.185-3.661-4.879-7.092-9.9-10.651-14.851q-13.146-18.251-26.732-36.178c-4.187-5.616-7.931-11.563-12.468-16.906-1.264 7.029-1.723 14.198-2.657 21.277q-3.424 26.331-6.431 52.713c-5.121.359-10.308.197-15.44.188q-13.488-.119-26.973.156c.427-8.415 1.869-16.803 2.957-25.154q2.557-18.899 4.763-37.843c.499-2.545.667-5.246 1-7.824q1.175-8.861 2.179-17.743c.146-1.438.347-2.865.553-4.296z"/></svg>