<?xml version="1.0" encoding="utf-8" ?>
<svg xmlns="http://www.w3.org/2000/svg" xmlns:xlink="http://www.w3.org/1999/xlink" width="1563" height="1563">
	<path fill="#FE0012" transform="matrix(3.05273 0 0 3.05273 6.10352e-05 -1.90735e-06)" d="M251.305 24.618C251.348 24.6151 251.39 24.6105 251.432 24.6093Q255.892 24.4973 260.353 24.5518Q264.814 24.6063 269.27 24.8272Q273.726 25.0481 278.171 25.435Q282.615 25.8219 287.042 26.3744Q291.469 26.9268 295.873 27.644Q300.276 28.3612 304.65 29.2422Q309.023 30.1232 313.361 31.1667Q317.699 32.2102 321.994 33.4147Q326.29 34.6193 330.538 35.9833Q334.786 37.3473 338.98 38.8688Q343.174 40.3903 347.308 42.0671Q351.442 43.744 355.511 45.5739Q359.58 47.4039 363.578 49.3843Q367.575 51.3647 371.496 53.4929Q375.417 55.6211 379.256 57.8941Q383.095 60.167 386.847 62.5816Q393.426 66.7708 399.645 71.4781Q405.863 76.1854 411.681 81.3801Q425.679 94.0225 437.818 108.46C439.989 110.995 442.611 113.632 444.181 116.575C444.764 117.668 444.993 118.699 445.037 119.936C445.278 126.739 444.987 133.661 444.971 140.477L444.951 181.152L444.937 311.677L444.891 369.573L444.953 383.82C444.969 386.664 445.259 389.796 444.663 392.582C443.803 396.606 431.137 410.273 427.559 414.083C383.27 461.247 325.491 484.852 261.283 486.834Q260.309 486.872 259.334 486.892Q256.451 486.957 253.567 486.951Q250.683 486.945 247.8 486.868Q244.917 486.79 242.037 486.642Q239.157 486.494 236.282 486.274Q233.406 486.054 230.537 485.764Q227.668 485.473 224.807 485.112Q221.946 484.751 219.094 484.319Q216.243 483.887 213.403 483.385Q210.563 482.883 207.737 482.311Q204.91 481.739 202.099 481.097Q199.287 480.455 196.492 479.744Q193.697 479.033 190.921 478.253Q188.144 477.474 185.388 476.626Q182.632 475.777 179.897 474.861Q177.163 473.945 174.451 472.962Q171.74 471.979 169.054 470.929Q166.368 469.879 163.709 468.763Q161.05 467.648 158.419 466.466Q155.788 465.285 153.187 464.039Q150.586 462.793 148.017 461.484Q145.448 460.174 142.912 458.801Q140.375 457.428 137.874 455.993Q135.372 454.558 132.907 453.062Q130.442 451.566 128.014 450.009Q125.587 448.452 123.198 446.836Q120.81 445.22 118.462 443.545Q116.114 441.87 113.809 440.138Q111.503 438.406 109.241 436.617Q106.978 434.829 104.761 432.985Q102.544 431.141 100.373 429.243Q98.2015 427.344 96.0779 425.393Q93.9543 423.442 91.8796 421.439C86.1595 415.909 70.5711 399.433 67.5237 393.363C67.01 392.339 66.9747 391.278 66.9561 390.159C66.6124 369.526 66.9753 348.822 66.9783 328.183L66.9865 193.877L66.975 139.304C66.9743 135.051 66.4584 121.242 67.2452 118.123C68.1936 114.365 83.1516 98.3775 86.5531 94.8602C130.324 49.6009 188.57 25.6802 251.305 24.618ZM250.591 111.405C249.127 111.39 247.389 111.205 245.954 111.415C245.157 111.532 244.088 112.573 243.384 112.465C242.431 112.319 241.874 111.478 240.868 111.324C239.468 112.259 238.001 114.802 236.892 116.151C234.807 118.91 232.928 123.777 229.768 125.264L229.612 125.612C230.104 126.5 230.446 126.796 230.16 127.825C230.081 128.111 229.982 128.391 229.885 128.671L230.168 128.674C232.043 128.708 233.973 128.926 235.816 129.276C235.88 129.435 235.985 129.588 235.989 129.76C231.976 136.519 226.563 142.299 221.61 148.351C216.213 154.945 210.955 161.696 205.613 168.342L177.934 203.17C173.567 208.66 169.397 214.223 164.775 219.515C166.869 209.659 168.035 199.692 169.335 189.71C170.739 178.924 172.192 168.152 173.186 157.319C159.147 157.24 144.958 156.81 130.931 157.364C127.631 182.236 124.889 207.202 121.352 232.041L121.665 232.605C121.795 232.522 121.931 232.447 122.056 232.356C122.181 232.266 122.291 232.157 122.413 232.063C123.384 231.32 125.357 230.871 126.549 230.695C128.269 230.442 130.129 230.63 131.878 230.481C136.791 230.064 141.708 229.358 146.643 229.352C150.488 229.347 154.331 229.875 158.166 229.789C160.395 229.738 162.608 229.457 164.832 229.384C166.13 229.341 167.451 229.463 168.744 229.353C169.839 229.26 170.923 228.907 172.021 228.867C172.985 228.832 174.015 229.175 174.978 229.275C177.209 229.506 179.608 229.808 181.848 229.749C185.731 229.645 189.537 228.887 193.461 228.855C195.021 228.843 203.204 229.267 204.085 229.105C205.636 228.821 206.404 227.546 207.613 226.696C208.347 226.18 208.647 226.19 209.511 226.341C212.111 223.817 216.048 218.056 218.554 214.961Q231.869 198.636 244.823 182.024C258.904 164.091 274.296 146.836 287.907 128.598C285.977 125.846 284.062 122.86 281.709 120.453C281.543 120.499 281.376 120.642 281.211 120.593C279.901 120.203 274.569 110.457 270.355 109.769C268.914 109.533 266.138 110.817 264.499 111.03C262.903 111.237 261.217 111.38 259.608 111.343C257.249 111.289 252.505 110.016 250.591 111.405ZM287.833 157.343Q283.495 193.734 278.644 230.06C278.803 230.868 278.798 231.083 279.369 231.709C279.89 231.497 279.9 231.204 280.119 230.698C280.289 230.303 280.383 229.935 280.475 229.517L280.679 229.705L280.659 228.929L280.924 229.087C281.759 229.576 282.117 229.755 283.094 229.696C284.936 229.583 286.597 230.394 288.406 230.443C292.625 230.558 296.947 230.184 301.16 229.92C303.93 229.747 306.78 229.744 309.531 229.457C313.093 229.085 315.946 228.242 319.555 228.904C320.247 228.164 319.99 227.144 320.556 226.298L320.83 226.463C320.574 227.909 320.121 229.891 320.708 231.274C321.612 226.683 322.039 221.926 322.59 217.28L325.195 195.627C326.795 182.847 329.093 170.12 330.306 157.297Q309.07 157.185 287.833 157.343Z"/>
	<path fill="#5AF4FD" transform="matrix(3.05273 0 0 3.05273 6.10352e-05 -1.90735e-06)" d="M236.373 115.783L236.892 116.151C234.807 118.91 232.928 123.777 229.768 125.264L229.612 125.612C230.104 126.5 230.446 126.796 230.16 127.825C230.081 128.111 229.982 128.391 229.885 128.671L230.168 128.674C232.043 128.708 233.973 128.926 235.816 129.276C235.88 129.435 235.985 129.588 235.989 129.76C232.678 129.387 229.341 129.442 226.014 129.34C228.773 124.556 232.916 120.101 236.373 115.783Z"/>
	<path fill="#5AF4FD" transform="matrix(3.05273 0 0 3.05273 6.10352e-05 -1.90735e-06)" d="M336.419 170.607C352.042 167.65 367.828 165.594 383.462 162.696C386.999 162.04 390.707 161.722 394.189 160.886L377.122 182.967C373.453 187.629 368.815 192.659 365.848 197.742C365.129 194.491 379.929 180.633 380.923 176.342C380.362 175.174 380.064 175.939 379.02 175.387L378.82 174.556C378.174 174.195 377.721 174.365 377.002 174.426C376.03 173.733 375.712 173.178 375.376 172.025C375.174 171.333 374.959 170.709 374.673 170.048C373.405 169.136 371.332 169.732 369.887 170.043C367.245 170.613 361.88 172.181 359.465 172.2C357.131 172.218 354.64 171.533 352.259 171.449C351.752 171.43 350.901 171.321 350.579 171.804C350.499 171.925 350.477 172.076 350.425 172.211C350.008 172.09 349.59 172 349.164 171.912C348.484 172.639 348.241 173.538 347.418 174.18C346.452 174.933 344.982 175.295 344.182 176.222C340.903 180.022 351.542 189.579 351.387 193.138C351.381 193.264 351.362 193.389 351.35 193.515C348.571 188.973 346.001 184.215 343.016 179.811C340.929 176.734 338.231 173.84 336.419 170.607Z"/>
	<path fill="#5AF4FD" transform="matrix(3.05273 0 0 3.05273 6.10352e-05 -1.90735e-06)" d="M257.427 88.8498C263.247 95.7812 268.604 103.188 274.066 110.405C276.54 113.673 279.6 116.992 281.709 120.453C281.543 120.499 281.376 120.642 281.211 120.593C279.901 120.203 274.569 110.457 270.355 109.769C268.914 109.533 266.138 110.817 264.499 111.03C262.903 111.237 261.217 111.38 259.608 111.343C257.249 111.289 252.505 110.016 250.591 111.405C249.127 111.39 247.389 111.205 245.954 111.415C245.157 111.532 244.088 112.573 243.384 112.465C242.431 112.319 241.874 111.478 240.868 111.324C239.468 112.259 238.001 114.802 236.892 116.151L236.373 115.783L247.649 101.56C250.995 97.3757 254.394 93.2751 257.427 88.8498Z"/>
	<path fill="#7F0152" transform="matrix(3.05273 0 0 3.05273 6.10352e-05 -1.90735e-06)" d="M85.6567 248.949C89.6326 247.312 93.7019 245.864 97.7009 244.277C103.816 241.852 114.597 237.066 120.799 236.337Q119.795 245.219 118.62 254.08C118.287 256.658 118.119 259.359 117.62 261.904C117.601 261.753 117.526 261.119 117.474 260.992C117.224 260.371 115.975 260.214 115.38 260.031C105.236 256.908 95.8326 252.043 85.6567 248.949Z"/>
	<path fill="#7F0152" transform="matrix(3.05273 0 0 3.05273 6.10352e-05 -1.90735e-06)" d="M247.384 370.862C255.9 370.5 264.596 370.814 273.123 370.965C269.418 381.374 264.248 391.371 259.54 401.36C258.272 403.744 257.13 406.22 255.932 408.641C253.974 404.504 252.307 400.209 250.408 396.039C246.667 387.826 242.754 379.661 239.593 371.203L247.384 370.862Z"/>
	<defs>
		<linearGradient id="gradient_0" gradientUnits="userSpaceOnUse" x1="305.87747" y1="230.37984" x2="302.79443" y2="157.78098">
			<stop offset="0" stop-color="#02DEFA"/>
			<stop offset="1" stop-color="#02FFFF" stop-opacity="0.98823529"/>
		</linearGradient>
	</defs>
	<path fill="url(#gradient_0)" transform="matrix(3.05273 0 0 3.05273 6.10352e-05 -1.90735e-06)" d="M287.833 157.343Q309.07 157.185 330.306 157.297C329.093 170.12 326.795 182.847 325.195 195.627L322.59 217.28C322.039 221.926 321.612 226.683 320.708 231.274C320.121 229.891 320.574 227.909 320.83 226.463L320.556 226.298C319.99 227.144 320.247 228.164 319.555 228.904C315.946 228.242 313.093 229.085 309.531 229.457C306.78 229.744 303.93 229.747 301.16 229.92C296.947 230.184 292.625 230.558 288.406 230.443C286.597 230.394 284.936 229.583 283.094 229.696C282.117 229.755 281.759 229.576 280.924 229.087L280.659 228.929L280.679 229.705L280.475 229.517C280.383 229.935 280.289 230.303 280.119 230.698C279.9 231.204 279.89 231.497 279.369 231.709C278.798 231.083 278.803 230.868 278.644 230.06Q283.495 193.734 287.833 157.343Z"/>
	<path fill="#34D7F8" transform="matrix(3.05273 0 0 3.05273 6.10352e-05 -1.90735e-06)" d="M351.35 193.515C351.362 193.389 351.381 193.264 351.387 193.138C351.542 189.579 340.903 180.022 344.182 176.222C344.982 175.295 346.452 174.933 347.418 174.18C348.241 173.538 348.484 172.639 349.164 171.912C349.59 172 350.008 172.09 350.425 172.211C350.477 172.076 350.499 171.925 350.579 171.804C350.901 171.321 351.752 171.43 352.259 171.449C354.64 171.533 357.131 172.218 359.465 172.2C361.88 172.181 367.245 170.613 369.887 170.043C371.332 169.732 373.405 169.136 374.673 170.048C374.959 170.709 375.174 171.333 375.376 172.025C375.712 173.178 376.03 173.733 377.002 174.426C377.721 174.365 378.174 174.195 378.82 174.556L379.02 175.387C380.064 175.939 380.362 175.174 380.923 176.342C379.929 180.633 365.129 194.491 365.848 197.742C366.264 201.59 368.482 207.286 369.585 211.264C371.087 216.681 372.245 222.239 373.82 227.619C374.118 228.638 374.504 229.556 374.997 230.496C378.871 232.992 383.778 234.397 388.058 236.096C398.196 240.12 408.462 243.856 418.46 248.219C414.19 250.192 409.745 251.745 405.365 253.449L388.119 260.237C384.27 261.734 379.823 262.992 376.284 265.078C375.569 265.5 374.584 266.064 374.188 266.826C372.576 269.925 370.858 277.966 369.82 281.66C368.172 287.525 366.226 293.307 364.636 299.185C367.483 303.77 370.928 308.005 374.289 312.216C380.512 320.009 387.155 327.68 393.045 335.712C385.834 335.398 378.848 333.349 371.78 332.074C359.485 329.857 346.466 327.816 334.326 325.131C342.381 314.565 349.971 303.807 355.225 291.507C365.128 268.326 367.082 240.038 360.023 215.767C358.488 210.49 356.589 205.116 354.408 200.078C353.449 197.864 352.239 195.754 351.35 193.515Z"/>
	<defs>
		<linearGradient id="gradient_1" gradientUnits="userSpaceOnUse" x1="200.46394" y1="237.252" x2="208.40089" y2="105.78123">
			<stop offset="0" stop-color="#00DFFA"/>
			<stop offset="1" stop-color="#2CFFFF" stop-opacity="0.98823529"/>
		</linearGradient>
	</defs>
	<path fill="url(#gradient_1)" transform="matrix(3.05273 0 0 3.05273 6.10352e-05 -1.90735e-06)" d="M250.591 111.405C252.505 110.016 257.249 111.289 259.608 111.343C261.217 111.38 262.903 111.237 264.499 111.03C266.138 110.817 268.914 109.533 270.355 109.769C274.569 110.457 279.901 120.203 281.211 120.593C281.376 120.642 281.543 120.499 281.709 120.453C284.062 122.86 285.977 125.846 287.907 128.598C274.296 146.836 258.904 164.091 244.823 182.024Q231.869 198.636 218.554 214.961C216.048 218.056 212.111 223.817 209.511 226.341C208.647 226.19 208.347 226.18 207.613 226.696C206.404 227.546 205.636 228.821 204.085 229.105C203.204 229.267 195.021 228.843 193.461 228.855C189.537 228.887 185.731 229.645 181.848 229.749C179.608 229.808 177.209 229.506 174.978 229.275C174.015 229.175 172.985 228.832 172.021 228.867C170.923 228.907 169.839 229.26 168.744 229.353C167.451 229.463 166.13 229.341 164.832 229.384C162.608 229.457 160.395 229.738 158.166 229.789C154.331 229.875 150.488 229.347 146.643 229.352C141.708 229.358 136.791 230.064 131.878 230.481C130.129 230.63 128.269 230.442 126.549 230.695C125.357 230.871 123.384 231.32 122.413 232.063C122.291 232.157 122.181 232.266 122.056 232.356C121.931 232.447 121.795 232.522 121.665 232.605L121.352 232.041C124.889 207.202 127.631 182.236 130.931 157.364C144.958 156.81 159.147 157.24 173.186 157.319C172.192 168.152 170.739 178.924 169.335 189.71C168.035 199.692 166.869 209.659 164.775 219.515C169.397 214.223 173.567 208.66 177.934 203.17L205.613 168.342C210.955 161.696 216.213 154.945 221.61 148.351C226.563 142.299 231.976 136.519 235.989 129.76C235.985 129.588 235.88 129.435 235.816 129.276C233.973 128.926 232.043 128.708 230.168 128.674L229.885 128.671C229.982 128.391 230.081 128.111 230.16 127.825C230.446 126.796 230.104 126.5 229.612 125.612L229.768 125.264C232.928 123.777 234.807 118.91 236.892 116.151C238.001 114.802 239.468 112.259 240.868 111.324C241.874 111.478 242.431 112.319 243.384 112.465C244.088 112.573 245.157 111.532 245.954 111.415C247.389 111.205 249.127 111.39 250.591 111.405Z"/>
	<defs>
		<linearGradient id="gradient_2" gradientUnits="userSpaceOnUse" x1="213.57652" y1="370.63718" x2="216.51086" y2="224.16672">
			<stop offset="0" stop-color="#0274CE"/>
			<stop offset="1" stop-color="#05CAF3"/>
		</linearGradient>
	</defs>
	<path fill="url(#gradient_2)" transform="matrix(3.05273 0 0 3.05273 6.10352e-05 -1.90735e-06)" d="M121.352 232.041L121.665 232.605C121.795 232.522 121.931 232.447 122.056 232.356C122.181 232.266 122.291 232.157 122.413 232.063C123.384 231.32 125.357 230.871 126.549 230.695C128.269 230.442 130.129 230.63 131.878 230.481C136.791 230.064 141.708 229.358 146.643 229.352C150.488 229.347 154.331 229.875 158.166 229.789C160.395 229.738 162.608 229.457 164.832 229.384C166.13 229.341 167.451 229.463 168.744 229.353C169.839 229.26 170.923 228.907 172.021 228.867C172.985 228.832 174.015 229.175 174.978 229.275C177.209 229.506 179.608 229.808 181.848 229.749C185.731 229.645 189.537 228.887 193.461 228.855C195.021 228.843 203.204 229.267 204.085 229.105C205.636 228.821 206.404 227.546 207.613 226.696C208.347 226.18 208.647 226.19 209.511 226.341C207.537 228.983 205.213 231.326 203.185 233.92C208.655 241.525 214.605 248.76 220.211 256.257C231.036 270.733 241.652 285.384 252.638 299.736C255.628 303.641 258.926 307.301 261.884 311.231C265.324 307.077 267.743 301.667 269.191 296.498C270.956 290.196 271.336 283.527 272.297 277.07Q275.764 253.605 278.644 230.06C278.803 230.868 278.798 231.083 279.369 231.709C279.89 231.497 279.9 231.204 280.119 230.698C280.289 230.303 280.383 229.935 280.475 229.517L280.679 229.705L280.659 228.929L280.924 229.087C281.759 229.576 282.117 229.755 283.094 229.696C284.936 229.583 286.597 230.394 288.406 230.443C292.625 230.558 296.947 230.184 301.16 229.92C303.93 229.747 306.78 229.744 309.531 229.457C313.093 229.085 315.946 228.242 319.555 228.904C320.247 228.164 319.99 227.144 320.556 226.298L320.83 226.463C320.574 227.909 320.121 229.891 320.708 231.274C320.569 234.683 320.015 238.155 319.61 241.542Q318.214 252.723 316.669 263.884C315.516 272.556 315.07 281.519 313.326 290.074C311.172 300.646 305.473 312.883 299.142 321.654C295.341 326.922 290.327 332.261 285.548 336.693C282.149 339.846 278.369 342.485 274.506 345.028C263.081 352.55 253.811 356.696 241.098 361.363C237.779 362.582 234.448 363.908 231.052 364.893C225.505 366.503 219.781 367.604 214.117 368.71C207.5 370.003 200.287 371.278 193.524 371.079C192.855 371.059 192.361 371.027 191.847 370.55C191.762 370.035 191.751 369.943 192.078 369.493C193.233 367.9 195.835 366.796 197.435 365.577C198.546 364.73 199.591 363.786 200.629 362.852C210.736 353.746 223.818 337.904 226.963 324.4C223.51 324.538 219.572 325.207 216.185 324.687C214.361 322.813 212.819 320.592 211.252 318.502C207.591 313.623 204.16 308.602 200.601 303.651Q187.455 285.4 173.869 267.473C169.682 261.857 165.938 255.91 161.401 250.567C160.137 257.596 159.678 264.765 158.744 271.844Q155.32 298.175 152.313 324.557C147.192 324.916 142.005 324.754 136.873 324.745Q123.385 324.626 109.9 324.901C110.327 316.486 111.769 308.098 112.857 299.747Q115.414 280.848 117.62 261.904C118.119 259.359 118.287 256.658 118.62 254.08Q119.795 245.219 120.799 236.337C120.945 234.899 121.146 233.472 121.352 232.041Z"/>
</svg>
